<?xml version="1.0" encoding="UTF-8"?>
<svg width="810px" height="116px" viewBox="0 0 810 116" version="1.1" xmlns="http://www.w3.org/2000/svg" xmlns:xlink="http://www.w3.org/1999/xlink">
    <title>编组 16</title>
    <g id="00设计规范" stroke="none" stroke-width="1" fill="none" fill-rule="evenodd">
        <g id="编组-16">
            <g id="编组-13">
                <rect id="矩形" stroke="#E1F3D9" fill="#F0F9EB" x="0.5" y="0.5" width="379" height="47" rx="4"></rect>
                <text id="成功提示" font-family="PingFangSC-Regular, PingFang SC" font-size="14" font-weight="normal" fill="#68C23A">
                    <tspan x="47" y="29">成功提示</tspan>
                </text>
            </g>
            <g id="编组-13" transform="translate(0.000000, 68.000000)">
                <rect id="矩形" stroke="#FAECD8" fill="#FDF6EC" x="0.5" y="0.5" width="379" height="47" rx="4"></rect>
                <text id="警告提示" font-family="PingFangSC-Regular, PingFang SC" font-size="14" font-weight="normal" fill="#E7A23D">
                    <tspan x="47" y="29">警告提示</tspan>
                </text>
                <g id="编组-12" transform="translate(22.000000, 17.000000)" fill="#E7A23D">
                    <path d="M7,0 C10.8659932,0 14,3.13400675 14,7 C14,10.8659932 10.8659932,14 7,14 C3.13400675,14 0,10.8659932 0,7 C0,3.13400675 3.13400675,0 7,0 Z M7.03870997,9.02273851 C6.75505062,9.02273851 6.51604135,9.11309723 6.32168217,9.29381468 C6.12732298,9.47453213 6.03014339,9.70574416 6.03014339,9.98745077 C6.03014339,10.2691574 6.11944355,10.5083422 6.29804389,10.7050053 C6.47664422,10.9016684 6.70777406,11 6.99143341,11 C7.27509277,11 7.51410204,10.9069837 7.70846122,10.720951 C7.90282041,10.5349183 8,10.2983911 8,10.0113693 C8,9.72434742 7.90807336,9.48782018 7.72422007,9.30178751 C7.54036679,9.11575484 7.31186342,9.02273851 7.03870997,9.02273851 Z M6.99268739,3 C6.71731345,3 6.47830966,3.09611688 6.27567601,3.28835063 C6.07304236,3.48058439 5.98211701,3.67516246 6.00289994,3.87208485 L6.00289994,3.87208485 L6.6575625,8.46370721 L7.34339947,8.46370721 L7.96688762,3.87208485 L7.96818656,3.76561391 C7.95519722,3.59044155 7.86643675,3.42666517 7.70190516,3.27428475 C7.50446724,3.09142825 7.26806132,3 6.99268739,3 Z" id="形状结合"></path>
                </g>
            </g>
            <g id="编组-13" transform="translate(430.000000, 0.000000)">
                <rect id="矩形" stroke="#ECEEF6" fill="#EDF2FC" x="0.5" y="0.5" width="379" height="47" rx="4"></rect>
                <text id="普通消息提示" font-family="PingFangSC-Regular, PingFang SC" font-size="14" font-weight="normal" fill="#91939A">
                    <tspan x="47" y="29">普通消息提示</tspan>
                </text>
                <path d="M29,17 C32.8659932,17 36,20.1340068 36,24 C36,27.8659932 32.8659932,31 29,31 C25.1340068,31 22,27.8659932 22,24 C22,20.1340068 25.1340068,17 29,17 Z M29.2717752,22.4827725 L29.2617884,22.4827725 C28.985481,22.4827725 28.678876,22.58178 28.3244595,22.7854615 C27.9936165,22.975608 27.6458942,23.2776909 27.2614083,23.7089825 L27.2614083,23.7089825 L26,25.1239651 L27.715762,24.3499756 C27.8690149,24.2808461 28.0348033,24.2072521 28.1870545,24.1407791 C27.8615868,25.2356794 27.4969851,26.5645532 27.4969851,27.1487498 C27.4969851,27.4541155 27.6139306,27.6459084 27.711914,27.7528853 C27.8598215,27.9145477 28.0617091,28 28.2957289,28 C28.5090215,28 28.7516397,27.9191436 29.037438,27.7528146 C29.2890413,27.6063842 29.6597124,27.297059 30.1706149,26.8071629 L30.1706149,26.8071629 L32,25.0529872 L29.7289653,26.1478168 C29.5462975,26.2358852 29.3422182,26.3311352 29.1669289,26.4099714 C29.2340595,26.0973636 29.3713157,25.5534184 29.6476826,24.6081 C29.9959306,23.4207881 30.0068595,23.2619438 30.0072066,23.1752188 C30.0140694,22.9756888 29.9601488,22.8115012 29.8468529,22.68705 C29.6726248,22.495651 29.4402612,22.4884189 29.3154215,22.4845301 C29.3038578,22.4841664 29.2925719,22.4838432 29.2817422,22.4832877 L29.2817422,22.4832877 L29.2717752,22.4827725 Z M29.8187868,20 C29.5258182,20 29.2616,20.121017 29.0547736,20.3498695 C28.8563174,20.5693283 28.7514116,20.8483714 28.7514116,21.1568279 C28.7514116,21.4177604 28.8366314,21.646724 28.9976694,21.8187801 C29.1638843,21.9966036 29.3815603,22.0906011 29.6271636,22.0906011 C29.8257587,22.0906011 30.1191934,22.0271988 30.3893025,21.7250553 C30.5963868,21.4934048 30.7013818,21.2201394 30.7013818,20.9128647 C30.7013818,20.6594573 30.6151008,20.4353824 30.4515537,20.2645384 C30.2855074,20.0914824 30.0666909,20 29.8187868,20 Z" id="形状结合" fill="#91939A"></path>
            </g>
            <g id="编组-13" transform="translate(430.000000, 68.000000)">
                <rect id="矩形" stroke="#FDE2E2" fill="#FEF1F0" x="0.5" y="0.5" width="379" height="47" rx="4"></rect>
                <path d="M29,31 C25.1340068,31 22,27.8659932 22,24 C22,20.1340068 25.1340068,17 29,17 C32.8659932,17 36,20.1340068 36,24 C36,25.8565154 35.2625021,27.6369928 33.9497475,28.9497475 C32.6369928,30.2625021 30.8565154,31 29,31 Z M28.0390853,23.9236363 L25.6209067,26.3418149 C25.4003666,26.4816082 25.2876019,26.7419368 25.3364838,26.9984337 C25.3853658,27.2549306 25.5859734,27.4555383 25.8424703,27.5044202 C26.0989672,27.5533021 26.3592958,27.4405374 26.4990891,27.2199973 L28.9172677,24.8018188 L31.3354612,27.2199973 C31.4752545,27.4405374 31.7355831,27.5533021 31.99208,27.5044202 C32.2485769,27.4555383 32.4491846,27.2549306 32.4980665,26.9984337 C32.5469484,26.7419368 32.4341837,26.4816082 32.2136436,26.3418149 L29.7954501,23.9236363 L32.2136436,21.5054577 C32.4341837,21.3656645 32.5469484,21.1053358 32.4980665,20.8488389 C32.4491846,20.592342 32.2485769,20.3917344 31.99208,20.3428524 C31.7355831,20.2939705 31.4752545,20.4067352 31.3354612,20.6272753 L28.9172677,23.0454539 L26.4990891,20.6272753 C26.2487975,20.4727916 25.925246,20.5099646 25.7165109,20.717186 C25.5077757,20.9244074 25.4682488,21.2476798 25.6209067,21.4990891 L28.0390853,23.9236363 Z" id="形状" fill="#F66D6E" fill-rule="nonzero"></path>
                <text id="错误提示" font-family="PingFangSC-Regular, PingFang SC" font-size="14" font-weight="normal" fill="#F66D6E">
                    <tspan x="47" y="29">错误提示</tspan>
                </text>
            </g>
            <path d="M29,17 C25.1338867,17 22,20.1339704 22,24 C22,27.8660435 25.1338867,31 29,31 C32.8659598,31 36,27.8660435 36,24 C36,20.1339704 32.8659598,17 29,17 Z M33.3617746,22.2818499 L28.4632952,27.0053292 C28.4001409,27.0685616 28.3266634,27.1205582 28.246024,27.159082 C27.9384068,27.3788644 27.5083287,27.3508371 27.2321568,27.0746233 L25.1285854,24.97101 C24.8209821,24.6634208 24.8209821,24.1648437 25.1285854,23.85738 C25.4360212,23.5497628 25.9346261,23.5497628 26.2422154,23.85738 L27.8215541,25.436649 L32.2481166,21.1681222 C32.555678,20.8606027 33.0543108,20.8606027 33.3617467,21.1681222 C33.6693638,21.4756696 33.6693638,21.9743025 33.3617746,22.2818359 L33.3617746,22.2818499 Z" id="形状" fill="#68C23A" fill-rule="nonzero"></path>
        </g>
    </g>
</svg>