<?xml version="1.0" encoding="UTF-8"?>
<svg width="220px" height="32px" viewBox="0 0 220 32" version="1.1" xmlns="http://www.w3.org/2000/svg" xmlns:xlink="http://www.w3.org/1999/xlink">
    <title>按钮分段器 Button Radiobox-nomarl</title>
    <g id="00设计规范" stroke="none" stroke-width="1" fill="none" fill-rule="evenodd">
        <g id="1-1-1-常用组件" transform="translate(-228.000000, -1475.000000)">
            <g id="按钮分段器-Button-Radiobox-nomarl" transform="translate(228.000000, 1475.000000)">
                <path d="M218.001532,0.5 L146.5,0.5 L146.5,31.454023 L218.001532,31.454023 C218.415043,31.454023 218.789689,31.2861218 219.060947,31.0148091 C219.332114,30.7435882 219.5,30.368968 219.5,29.9551557 L219.5,1.99886725 C219.5,1.58306078 219.333278,1.20862703 219.062772,0.938067402 C218.791403,0.666644163 218.416014,0.5 218.001532,0.5 Z" id="Rectangle-77-Copy-8" stroke="#D9D9D9" fill="#FFFFFF"></path>
                <rect id="Rectangle-77-Copy-9" stroke="#D9D9D9" fill="#FFFFFF" x="73.5" y="0.5" width="73" height="30.954023"></rect>
                <text id="已审核" font-family="PingFangSC-Regular, PingFang SC" font-size="14" font-weight="normal" line-spacing="22" fill="#666666">
                    <tspan x="89" y="19.9770115">已审核</tspan>
                </text>
                <path d="M73.5,0.5 L1.99846785,0.5 C1.58495663,0.5 1.21031138,0.667901231 0.939052962,0.939213865 C0.667886229,1.21043479 0.5,1.58505494 0.5,1.99886725 L0.5,29.9551557 C0.5,30.3709622 0.666722211,30.745396 0.937227782,31.0159556 C1.20859679,31.2873788 1.58398575,31.454023 1.99846785,31.454023 L73.5,31.454023 L73.5,0.5 Z" id="Rectangle-77-Copy-8" stroke="#1890FF" fill="#FFFFFF"></path>
                <text id="未审核" font-family="PingFangSC-Regular, PingFang SC" font-size="14" font-weight="normal" line-spacing="22" fill="#1890FF">
                    <tspan x="16" y="20">未审核</tspan>
                </text>
                <text id="全部" font-family="PingFangSC-Regular, PingFang SC" font-size="14" font-weight="normal" line-spacing="22" fill="#666666">
                    <tspan x="169" y="20">全部</tspan>
                </text>
            </g>
        </g>
    </g>
</svg>