<?xml version="1.0" encoding="UTF-8"?>
<svg width="670px" height="168px" viewBox="0 0 670 168" version="1.1" xmlns="http://www.w3.org/2000/svg" xmlns:xlink="http://www.w3.org/1999/xlink">
    <title>编组 15</title>
    <g id="00设计规范" stroke="none" stroke-width="1" fill="none" fill-rule="evenodd">
        <g id="1-1-1-常用组件" transform="translate(-228.000000, -1939.000000)">
            <g id="编组-15" transform="translate(228.000000, 1939.000000)">
                <text id="问题描述：" font-family="PingFangSC-Regular, PingFang SC" font-size="14" font-weight="normal" fill="#666666">
                    <tspan x="28" y="63">问题描述：</tspan>
                </text>
                <g id="编组-5" transform="translate(0.000000, 6.000000)" fill="#666666" font-family="PingFangSC-Regular, PingFang SC" font-size="14" font-weight="normal">
                    <text id="会议预约时间：">
                        <tspan x="0" y="15">会议预约时间：</tspan>
                    </text>
                </g>
                <g id="编组-11" transform="translate(98.000000, 0.000000)">
                    <g id="编组" transform="translate(190.000000, 0.000000)">
                        <path d="M127.997086,0.5 L2.00291437,0.5 C1.58863627,0.5 1.21273853,0.668524686 0.940454299,0.940649722 C0.668645609,1.21229949 0.5,1.5873701 0.5,2.00174332 L0.5,29.9982567 C0.5,30.4148158 0.667185781,30.7899095 0.938387631,31.0609528 C1.21059707,31.3330031 1.5871574,31.5 2.00291437,31.5 L127.997086,31.5 C128.411364,31.5 128.787261,31.3314753 129.059546,31.0593503 C129.331354,30.7877005 129.5,30.4126299 129.5,29.9982567 L129.5,2.00174332 C129.5,1.58518416 129.332814,1.21009047 129.061612,0.93904718 C128.789403,0.666996896 128.412843,0.5 127.997086,0.5 Z" id="Rectangle-26-Copy-7" stroke="#D9D9D9" fill="#FFFFFF"></path>
                        <text id="下午" font-family="PingFangSC-Regular, PingFang SC" font-size="14" font-weight="normal" fill="#111111">
                            <tspan x="13" y="21">下午</tspan>
                        </text>
                        <g id="Group" transform="translate(102.000000, 10.000000)">
                            <rect id="Rectangle" x="0" y="0" width="12" height="12"></rect>
                            <path d="M10.8953419,3.12040486 C11.0877298,3.29363172 11.1032629,3.59002105 10.930036,3.78240897 L6.37179063,8.84485334 C6.27507231,8.95226993 6.13995978,9.00455448 6.00599155,8.99963488 C5.87209103,9.00481426 5.73654667,8.95253713 5.63958775,8.84485334 L5.63958775,8.84485334 L1.08134236,3.78240897 C0.908115503,3.59002105 0.92364861,3.29363172 1.11603653,3.12040486 C1.30842444,2.947178 1.60481378,2.96271111 1.77804063,3.15509903 L1.77804063,3.15509903 L6.0059375,7.85 L10.2333377,3.15509903 C10.4065646,2.96271111 10.7029539,2.947178 10.8953419,3.12040486 Z" id="down" fill-opacity="0.25" fill="#111111"></path>
                        </g>
                    </g>
                    <g id="Group-4">
                        <path d="M178.009302,0.5 L1.99069802,0.5 C1.58296417,0.5 1.2101051,0.669810837 0.939265816,0.942152858 C0.669158246,1.21375911 0.5,1.58809383 0.5,2.00174332 L0.5,29.9982567 C0.5,30.4151701 0.666077728,30.7907162 0.935900099,31.0620357 C1.20562179,31.3332539 1.57866968,31.5 1.99069802,31.5 L178.009302,31.5 C178.417036,31.5 178.789895,31.3301892 179.060734,31.0578471 C179.330842,30.7862409 179.5,30.4119062 179.5,29.9982567 L179.5,2.00174332 C179.5,1.58482986 179.333922,1.2092838 179.0641,0.937964335 C178.794378,0.666746108 178.42133,0.5 178.009302,0.5 Z" id="Rectangle-5" stroke="#D9D9D9" fill="#FFFFFF"></path>
                        <text id="2020-01-30" font-family="PingFangSC-Regular, PingFang SC" font-size="14" font-weight="normal" fill="#111111">
                            <tspan x="12" y="21">2020-01-30</tspan>
                        </text>
                        <g id="calendar" transform="translate(152.000000, 8.000000)" fill="#111111" fill-rule="nonzero">
                            <rect id="矩形" opacity="0" x="0" y="0" width="16" height="16"></rect>
                            <path d="M13.75,2.875 L11.125,2.875 L11.125,1.875 C11.125,1.80625 11.06875,1.75 11,1.75 L10.125,1.75 C10.05625,1.75 10,1.80625 10,1.875 L10,2.875 L6,2.875 L6,1.875 C6,1.80625 5.94375,1.75 5.875,1.75 L5,1.75 C4.93125,1.75 4.875,1.80625 4.875,1.875 L4.875,2.875 L2.25,2.875 C1.9734375,2.875 1.75,3.0984375 1.75,3.375 L1.75,13.75 C1.75,14.0265625 1.9734375,14.25 2.25,14.25 L13.75,14.25 C14.0265625,14.25 14.25,14.0265625 14.25,13.75 L14.25,3.375 C14.25,3.0984375 14.0265625,2.875 13.75,2.875 Z M13.125,13.125 L2.875,13.125 L2.875,7.1875 L13.125,7.1875 L13.125,13.125 Z M2.875,6.125 L2.875,4 L4.875,4 L4.875,4.75 C4.875,4.81875 4.93125,4.875 5,4.875 L5.875,4.875 C5.94375,4.875 6,4.81875 6,4.75 L6,4 L10,4 L10,4.75 C10,4.81875 10.05625,4.875 10.125,4.875 L11,4.875 C11.06875,4.875 11.125,4.81875 11.125,4.75 L11.125,4 L13.125,4 L13.125,6.125 L2.875,6.125 Z" id="形状" opacity="0.25"></path>
                        </g>
                    </g>
                </g>
                <g id="编组-14" transform="translate(98.000000, 48.000000)">
                    <g id="编组-8">
                        <path d="M569.999257,0.5 L2.00074264,0.5 C1.58492608,0.5 1.21024235,0.667745879 0.939394906,0.939510398 C0.667180853,1.21264616 0.5,1.59043941 0.5,2.00751708 L0.5,117.992483 C0.5,118.409481 0.667843255,118.786528 0.939694494,119.0593 C1.21117935,119.331704 1.58632653,119.5 2.00074264,119.5 L569.999257,119.5 C570.415074,119.5 570.789758,119.332254 571.060605,119.06049 C571.332819,118.787354 571.5,118.409561 571.5,117.992483 L571.5,2.00751708 C571.5,1.5905193 571.332157,1.21347164 571.060306,0.94069992 C570.788821,0.668295826 570.413673,0.5 569.999257,0.5 Z" id="Rectangle-26-Copy-34" stroke="#D9D9D9" fill="#FFFFFF"></path>
                        <g id="Group-16" transform="translate(560.000000, 109.000000)" stroke="#111111" stroke-opacity="0.25">
                            <g id="Group-15">
                                <line x1="5.14341518" y1="6.96016609" x2="7.43763951" y2="4.65701319" id="Path-129"></line>
                                <line x1="0.584542411" y1="6.90310694" x2="7.41441127" y2="0.0697503561" id="Path-129-Copy"></line>
                            </g>
                        </g>
                    </g>
                    <text id="华连头第斯片志教八千选族声于白合华次千温" font-family="PingFangSC-Regular, PingFang SC" font-size="14" font-weight="normal" line-spacing="22" fill="#111111">
                        <tspan x="12" y="25">华连头第斯片志教八千选族声于白合华次千温气用白向金而二车克心下目连天现非极军专</tspan>
                        <tspan x="12" y="47">中青手。内手已走来类务头想斯形电交层九观斯外图际转验深热县花处解可保月带器至广</tspan>
                        <tspan x="12" y="69">非四委后各消将心及志务标局调上海造角么严选别家西动养行第张通整建选。根真为儿派</tspan>
                        <tspan x="12" y="91">意持整西六被反二严什达几易满等却价农最只动步月应电思常一反角构除</tspan>
                    </text>
                </g>
            </g>
        </g>
    </g>
</svg>