<?xml version="1.0" encoding="UTF-8"?>
<svg width="128px" height="128px" viewBox="0 0 128 128" version="1.1" xmlns="http://www.w3.org/2000/svg" xmlns:xlink="http://www.w3.org/1999/xlink">
    <title>分组</title>
    <defs>
        <linearGradient x1="21.0621852%" y1="3.20603794%" x2="79.2769896%" y2="81.7208534%" id="linearGradient-1">
            <stop stop-color="#2A97FF" offset="0%"></stop>
            <stop stop-color="#4285F4" offset="100%"></stop>
        </linearGradient>
    </defs>
    <g id="登录页" stroke="none" stroke-width="1" fill="none" fill-rule="evenodd">
        <g id="分组">
            <rect id="矩形" stroke="#EEEEEE" fill="#FFFFFF" fill-rule="nonzero" x="0.5" y="0.5" width="127" height="127" rx="10"></rect>
            <path d="M43.0480149,22 C32.9618837,22 25.0046219,29.9928457 25.0046219,40.0282641 L25.0046219,40.0282641 L25,87.0717127 C25,87.3982535 25.2066011,87.6936897 25.3368245,87.9932578 L25.3368245,87.9932578 C25.4571107,88.269641 25.628585,88.5212323 25.8428123,88.7341438 L25.8428123,88.7341438 L47.468793,110.251516 C47.468793,110.251516 47.5044975,110.282047 47.5209054,110.297656 L47.5209054,110.297656 C47.7548916,110.52262 48.0564737,110.635101 48.3579403,110.636364 L48.3579403,110.636364 L48.3681086,110.636364 C48.6837876,110.635101 48.9985423,110.511831 49.2353016,110.268159 L49.2353016,110.268159 C49.5004859,109.994415 49.552945,109.537718 49.5644999,109.277059 L49.5644999,109.277059 C49.573166,109.081134 49.6010133,108.398899 49.6095639,108.193908 L49.6095639,108.193908 L49.6002044,41.6807096 C49.6002044,40.0177046 51.3224579,38.2752739 52.9941011,38.2752739 L52.9941011,38.2752739 L82.4501244,38.3014431 C83.4028235,38.3014431 84.0546338,39.1207218 84.0546338,40.4323942 L84.0546338,40.4323942 L84.0457365,47.0696079 C84.0457365,48.3587839 83.5820396,48.9723822 82.5366704,48.9723822 L82.5366704,48.9723822 L62.4923205,48.9656103 C61.4947885,48.9656103 61.0530457,49.4998976 61.0530457,50.435675 L61.0530457,50.435675 L61.0540857,60.9186093 C61.0540857,62.1601529 61.8402791,62.7424169 62.8095017,62.7424169 L62.8095017,62.7424169 L74.4631666,62.753206 C75.6492741,62.753206 75.9795123,63.5824703 75.9795123,64.4753212 L75.9795123,64.4753212 L75.9602157,71.6164062 C75.9602157,73.0542186 75.397609,73.436541 74.3426493,73.436541 L74.3426493,73.436541 L62.7490697,73.4275884 C61.5404302,73.4275884 61.1562307,74.2307983 61.1562307,75.0290729 L61.1562307,75.0290729 L61.1683634,91.9042865 C61.1647813,92.5037672 61.4313522,93.0730614 62.563614,93.0483844 L62.563614,93.0483844 L84.2886199,93.0411534 C94.3750978,93.0411534 102.993876,85.6395244 102.993876,75.604106 L102.993876,75.604106 L103,40.3817775 C103,30.3463591 94.343553,22.0133141 84.2571907,22.0133141 L84.2571907,22.0133141 L84.2570751,22.0011478 L43.0480149,22 Z" id="Fill-1" fill="url(#linearGradient-1)"></path>
        </g>
    </g>
</svg>