<?xml version="1.0" encoding="UTF-8"?>
<svg width="602px" height="482px" viewBox="0 0 602 482" version="1.1" xmlns="http://www.w3.org/2000/svg" xmlns:xlink="http://www.w3.org/1999/xlink">
    <title>编组 8</title>
    <defs>
        <rect id="path-1" x="0" y="0" width="14" height="14" rx="2"></rect>
        <rect id="path-3" x="0" y="0" width="14" height="14" rx="2"></rect>
    </defs>
    <g id="3-1-小优化" stroke="none" stroke-width="1" fill="none" fill-rule="evenodd">
        <g id="编组-8" transform="translate(1.000000, 1.000000)">
            <g id="Group-6-Copy-6">
                <rect id="Mask" stroke="#EEEEEE" fill="#FFFFFF" x="-0.5" y="-0.5" width="601" height="481" rx="2"></rect>
                <rect id="Rectangle-10备份" fill-opacity="0.05" fill="#000000" x="20" y="104" width="260" height="1"></rect>
            </g>
            <path d="M300,412 L600,412 L600,478 C600,479.104569 599.104569,480 598,480 L302,480 C300.895431,480 300,479.104569 300,478 L300,412 L300,412 Z" id="Rectangle-36" fill="#FFFFFF"></path>
            <rect id="Rectangle-13" fill="#4285F4" x="500" y="432" width="80" height="28" rx="2"></rect>
            <rect id="Rectangle-13" stroke="#EEEEEE" fill="#FFFFFF" x="404.5" y="432.5" width="79" height="27" rx="2"></rect>
            <text id="确定" font-family="PingFangSC-Regular, PingFang SC" font-size="12" font-weight="normal" fill="#FFFFFF">
                <tspan x="528" y="451">确定</tspan>
            </text>
            <text id="取消" opacity="0.659999967" font-family="PingFangSC-Regular, PingFang SC" font-size="12" font-weight="normal" fill="#666666">
                <tspan x="432" y="450">取消</tspan>
            </text>
            <text id="已选择（n个人）" font-family="PingFangSC-Medium, PingFang SC" font-size="12" font-weight="400" fill="#1951AE">
                <tspan x="321" y="36">已选择（n个人）</tspan>
            </text>
            <g id="分组-12" transform="translate(20.000000, 20.000000)">
                <rect id="Rectangle" stroke="#EEEEEE" fill="#FAFAFA" x="0.5" y="0.5" width="259" height="27" rx="2"></rect>
                <g id="编组" transform="translate(10.000000, 8.000000)" fill="#CDCDCD" fill-rule="nonzero">
                    <path d="M5.5,0 C8.53756612,0 11,2.46243388 11,5.5 C11,6.90622784 10.4722546,8.18919414 9.60401774,9.16164485 L11.2715182,10.8098128 C11.4667803,11.005075 11.4667803,11.3216575 11.2715182,11.5169196 C11.076256,11.7121818 10.7596735,11.7121818 10.5644114,11.5169196 L8.87261631,9.84491274 C7.9412735,10.5688857 6.77098283,11 5.5,11 C2.46243388,11 0,8.53756612 0,5.5 C0,2.46243388 2.46243388,0 5.5,0 Z M5.5,1 C3.01471863,1 1,3.01471863 1,5.5 C1,7.98528137 3.01471863,10 5.5,10 C7.98528137,10 10,7.98528137 10,5.5 C10,3.01471863 7.98528137,1 5.5,1 Z" id="形状结合"></path>
                </g>
                <text id="搜索" font-family="PingFangSC-Regular, PingFang SC" font-size="12" font-weight="normal" fill="#CDCDCD">
                    <tspan x="28" y="19">搜索</tspan>
                </text>
            </g>
            <g id="编组-2" transform="translate(0.000000, 82.000000)">
                <g id="编组-4" transform="translate(0.000000, 84.000000)">
                    <rect id="Rectangle-15" fill="#FFFFFF" x="0" y="0" width="300" height="28"></rect>
                    <g id="编组-5" transform="translate(28.000000, 5.000000)" fill="#111111">
                        <g id="编组-10" transform="translate(0.000000, 3.000000)" fill-rule="nonzero">
                            <path d="M3.08002472,4.48770697 L5.96391233,7.89541172 C6.02589202,7.96513724 6.10222169,8 6.19290134,8 C6.28358099,8 6.35991066,7.96513724 6.42189035,7.89541172 L9.31997528,4.48770697 C9.40592249,4.39478917 9.42263869,4.29027522 9.37012388,4.17416513 C9.31760906,4.05805504 9.2245632,4 9.09098627,4 L3.30901373,4 C3.1754368,4 3.08239094,4.05805504 3.02987612,4.17416513 C2.97736131,4.29027522 2.99407751,4.39478917 3.08002472,4.48770697 L3.08002472,4.48770697 Z" id="caret-down"></path>
                        </g>
                        <text id="市场部" font-family="PingFangSC-Regular, PingFang SC" font-size="13" font-weight="normal">
                            <tspan x="17" y="14">市场部</tspan>
                        </text>
                    </g>
                </g>
                <g id="编组-4" transform="translate(0.000000, 140.000000)">
                    <rect id="Rectangle-15" fill="#FFFFFF" x="0" y="0" width="300" height="28"></rect>
                    <g id="编组-5" transform="translate(36.000000, 5.000000)" fill="#111111">
                        <g id="编组-10" transform="translate(0.000000, 3.000000)" fill-rule="nonzero">
                            <path d="M3.08002472,4.48770697 L5.96391233,7.89541172 C6.02589202,7.96513724 6.10222169,8 6.19290134,8 C6.28358099,8 6.35991066,7.96513724 6.42189035,7.89541172 L9.31997528,4.48770697 C9.40592249,4.39478917 9.42263869,4.29027522 9.37012388,4.17416513 C9.31760906,4.05805504 9.2245632,4 9.09098627,4 L3.30901373,4 C3.1754368,4 3.08239094,4.05805504 3.02987612,4.17416513 C2.97736131,4.29027522 2.99407751,4.39478917 3.08002472,4.48770697 L3.08002472,4.48770697 Z" id="caret-down" transform="translate(6.200000, 6.000000) rotate(-90.000000) translate(-6.200000, -6.000000) "></path>
                        </g>
                        <text id="人事部" font-family="PingFangSC-Regular, PingFang SC" font-size="13" font-weight="normal">
                            <tspan x="17" y="14">人事部</tspan>
                        </text>
                    </g>
                </g>
                <g id="编组-4" transform="translate(0.000000, 168.000000)">
                    <rect id="Rectangle-15" fill="#FFFFFF" x="0" y="0" width="300" height="28"></rect>
                    <g id="编组-5" transform="translate(36.000000, 5.000000)" fill="#111111">
                        <g id="编组-10" transform="translate(0.000000, 3.000000)" fill-rule="nonzero">
                            <path d="M3.08002472,4.48770697 L5.96391233,7.89541172 C6.02589202,7.96513724 6.10222169,8 6.19290134,8 C6.28358099,8 6.35991066,7.96513724 6.42189035,7.89541172 L9.31997528,4.48770697 C9.40592249,4.39478917 9.42263869,4.29027522 9.37012388,4.17416513 C9.31760906,4.05805504 9.2245632,4 9.09098627,4 L3.30901373,4 C3.1754368,4 3.08239094,4.05805504 3.02987612,4.17416513 C2.97736131,4.29027522 2.99407751,4.39478917 3.08002472,4.48770697 L3.08002472,4.48770697 Z" id="caret-down" transform="translate(6.200000, 6.000000) rotate(-360.000000) translate(-6.200000, -6.000000) "></path>
                        </g>
                        <text id="开发部" font-family="PingFangSC-Regular, PingFang SC" font-size="13" font-weight="normal">
                            <tspan x="17" y="14">开发部</tspan>
                        </text>
                    </g>
                </g>
                <g id="编组-4" transform="translate(0.000000, 252.000000)">
                    <rect id="Rectangle-15" fill="#FFFFFF" x="0" y="0" width="300" height="28"></rect>
                    <g id="编组-5" transform="translate(44.000000, 5.000000)" fill="#111111">
                        <g id="编组-10" transform="translate(0.000000, 3.000000)" fill-rule="nonzero">
                            <path d="M3.08002472,4.48770697 L5.96391233,7.89541172 C6.02589202,7.96513724 6.10222169,8 6.19290134,8 C6.28358099,8 6.35991066,7.96513724 6.42189035,7.89541172 L9.31997528,4.48770697 C9.40592249,4.39478917 9.42263869,4.29027522 9.37012388,4.17416513 C9.31760906,4.05805504 9.2245632,4 9.09098627,4 L3.30901373,4 C3.1754368,4 3.08239094,4.05805504 3.02987612,4.17416513 C2.97736131,4.29027522 2.99407751,4.39478917 3.08002472,4.48770697 L3.08002472,4.48770697 Z" id="caret-down" transform="translate(6.200000, 6.000000) rotate(-360.000000) translate(-6.200000, -6.000000) "></path>
                        </g>
                        <text id="开发部开发部开发部i开…" font-family="PingFangSC-Regular, PingFang SC" font-size="13" font-weight="normal">
                            <tspan x="17" y="14">开发部开发部开发部i开…</tspan>
                        </text>
                    </g>
                </g>
                <g id="编组-4">
                    <rect id="Rectangle-15" fill="#FFFFFF" x="0" y="0" width="300" height="28"></rect>
                    <g id="编组-5" transform="translate(20.000000, 5.000000)" fill="#111111">
                        <g id="编组-10" transform="translate(0.000000, 3.000000)" fill-rule="nonzero">
                            <path d="M3.08002472,4.48770697 L5.96391233,7.89541172 C6.02589202,7.96513724 6.10222169,8 6.19290134,8 C6.28358099,8 6.35991066,7.96513724 6.42189035,7.89541172 L9.31997528,4.48770697 C9.40592249,4.39478917 9.42263869,4.29027522 9.37012388,4.17416513 C9.31760906,4.05805504 9.2245632,4 9.09098627,4 L3.30901373,4 C3.1754368,4 3.08239094,4.05805504 3.02987612,4.17416513 C2.97736131,4.29027522 2.99407751,4.39478917 3.08002472,4.48770697 L3.08002472,4.48770697 Z" id="caret-down"></path>
                        </g>
                        <text id="组织架构" font-family="PingFangSC-Regular, PingFang SC" font-size="13" font-weight="normal">
                            <tspan x="17" y="14">组织架构</tspan>
                        </text>
                    </g>
                </g>
                <g id="编组-4" transform="translate(0.000000, 336.000000)">
                    <rect id="Rectangle-15" fill="#FFFFFF" x="0" y="0" width="300" height="28"></rect>
                    <g id="编组-10" transform="translate(20.000000, 9.000000)" fill="#111111" fill-rule="nonzero">
                        <path d="M2.08002472,3.48770697 L4.96391233,6.89541172 C5.02589202,6.96513724 5.10222169,7 5.19290134,7 C5.28358099,7 5.35991066,6.96513724 5.42189035,6.89541172 L8.31997528,3.48770697 C8.40592249,3.39478917 8.42263869,3.29027522 8.37012388,3.17416513 C8.31760906,3.05805504 8.2245632,3 8.09098627,3 L2.30901373,3 C2.1754368,3 2.08239094,3.05805504 2.02987612,3.17416513 C1.97736131,3.29027522 1.99407751,3.39478917 2.08002472,3.48770697 L2.08002472,3.48770697 Z" id="caret-down"></path>
                    </g>
                    <text id="常用联系人" font-family="PingFangSC-Regular, PingFang SC" font-size="13" font-weight="normal" fill="#111111">
                        <tspan x="36" y="19">常用联系人</tspan>
                    </text>
                </g>
                <g id="编组-4" transform="translate(0.000000, 112.000000)">
                    <rect id="Rectangle-15" fill="#FFFFFF" x="0" y="0" width="300" height="28"></rect>
                    <g id="编组-6" transform="translate(36.000000, 5.000000)">
                        <rect id="矩形" fill="#D8D8D8" x="0" y="2" width="14" height="14" rx="2"></rect>
                        <text id="已选择高亮" font-family="PingFangSC-Regular, PingFang SC" font-size="13" font-weight="normal" fill="#1951AE">
                            <tspan x="19" y="14">已选择高亮</tspan>
                        </text>
                    </g>
                </g>
                <g id="编组-4" transform="translate(0.000000, 196.000000)">
                    <rect id="Rectangle-15" fill="#FFFFFF" x="0" y="0" width="300" height="28"></rect>
                    <g id="编组-6" transform="translate(44.000000, 5.000000)">
                        <rect id="矩形" fill="#D8D8D8" x="0" y="2" width="14" height="14" rx="2"></rect>
                        <text id="已选择高亮" font-family="PingFangSC-Regular, PingFang SC" font-size="13" font-weight="normal" fill="#1951AE">
                            <tspan x="19" y="14">已选择高亮</tspan>
                        </text>
                    </g>
                </g>
                <g id="编组-4" transform="translate(0.000000, 224.000000)">
                    <rect id="Rectangle-15" fill="#FFFFFF" x="0" y="0" width="300" height="28"></rect>
                    <g id="编组-6" transform="translate(44.000000, 5.000000)">
                        <g id="global_default_avatar" transform="translate(0.000000, 2.000000)">
                            <mask id="mask-2" fill="white">
                                <use xlink:href="#path-1"></use>
                            </mask>
                            <use id="蒙版" fill="#FF4646" xlink:href="#path-1"></use>
                            <g mask="url(#mask-2)">
                                <rect id="矩形" fill="#9B9B9B" x="0" y="0" width="14" height="14"></rect>
                                <circle id="椭圆形" fill="#EEEEEE" cx="7" cy="5.5" r="2.5"></circle>
                                <path d="M6.91704156,9 C9.89010473,9 12.3581161,11.1623839 12.8341152,14.0001915 L0.999967873,14.0001915 C1.47596705,11.1623839 3.94397839,9 6.91704156,9 Z" id="形状结合" fill="#EEEEEE"></path>
                            </g>
                        </g>
                        <text id="王光杰" font-family="PingFangSC-Regular, PingFang SC" font-size="13" font-weight="normal" fill="#111111">
                            <tspan x="19" y="14">蔡金平</tspan>
                        </text>
                    </g>
                </g>
                <g id="编组-4" transform="translate(0.000000, 280.000000)">
                    <rect id="Rectangle-15" fill="#FFFFFF" x="0" y="5.68434189e-14" width="300" height="28"></rect>
                    <g id="编组-6" transform="translate(52.000000, 5.000000)">
                        <g id="global_default_avatar" transform="translate(0.000000, 2.000000)">
                            <mask id="mask-4" fill="white">
                                <use xlink:href="#path-3"></use>
                            </mask>
                            <use id="蒙版" fill="#FF4646" xlink:href="#path-3"></use>
                            <g mask="url(#mask-4)">
                                <rect id="矩形" fill="#9B9B9B" x="0" y="0" width="14" height="14"></rect>
                                <circle id="椭圆形" fill="#EEEEEE" cx="7" cy="5.5" r="2.5"></circle>
                                <path d="M6.91704156,9 C9.89010473,9 12.3581161,11.1623839 12.8341152,14.0001915 L0.999967873,14.0001915 C1.47596705,11.1623839 3.94397839,9 6.91704156,9 Z" id="形状结合" fill="#EEEEEE"></path>
                            </g>
                        </g>
                        <text id="李恩豪李恩豪i李恩豪…" font-family="PingFangSC-Regular, PingFang SC" font-size="13" font-weight="normal" fill="#111111">
                            <tspan x="19" y="14">李恩豪李恩豪i李恩豪…</tspan>
                        </text>
                    </g>
                </g>
                <g id="编组-4" transform="translate(0.000000, 308.000000)">
                    <rect id="Rectangle-15" fill="#FFFFFF" x="0" y="5.68434189e-14" width="300" height="28"></rect>
                    <g id="编组-6" transform="translate(52.000000, 5.000000)">
                        <rect id="矩形" fill="#D8D8D8" x="0" y="2" width="14" height="14" rx="2"></rect>
                        <text id="不可选不可选不可选" font-family="PingFangSC-Regular, PingFang SC" font-size="13" font-weight="normal" fill="#7B8082">
                            <tspan x="19" y="14">不可选不可选不可选</tspan>
                        </text>
                    </g>
                </g>
                <g id="编组-4" transform="translate(0.000000, 28.000000)">
                    <rect id="Rectangle-15" fill="#FFFFFF" x="0" y="0" width="300" height="28"></rect>
                    <g id="编组-6" transform="translate(28.000000, 5.000000)">
                        <rect id="矩形" fill="#D8D8D8" x="0" y="2" width="14" height="14" rx="2"></rect>
                        <text id="王光杰" font-family="PingFangSC-Regular, PingFang SC" font-size="13" font-weight="normal" fill="#111111">
                            <tspan x="19" y="14">李浩华</tspan>
                        </text>
                    </g>
                </g>
                <g id="编组-4" transform="translate(0.000000, 364.000000)">
                    <rect id="Rectangle-15" fill="#FFFFFF" x="0" y="0" width="300" height="28"></rect>
                    <g id="编组-6" transform="translate(28.000000, 5.000000)">
                        <rect id="矩形" fill="#D8D8D8" x="0" y="2" width="14" height="14" rx="2"></rect>
                        <text id="王光杰" font-family="PingFangSC-Regular, PingFang SC" font-size="13" font-weight="normal" fill="#111111">
                            <tspan x="19" y="14">傅小小</tspan>
                        </text>
                    </g>
                </g>
                <g id="编组-4" transform="translate(0.000000, 56.000000)">
                    <rect id="Rectangle-15" fill="#FFFFFF" x="0" y="0" width="300" height="28"></rect>
                    <g id="编组-7" transform="translate(28.000000, 5.000000)">
                        <rect id="矩形" fill="#D8D8D8" x="0" y="2" width="14" height="14" rx="2"></rect>
                        <text id="王光杰" font-family="PingFangSC-Regular, PingFang SC" font-size="13" font-weight="normal" fill="#111111">
                            <tspan x="19" y="14">康翔</tspan>
                        </text>
                    </g>
                </g>
                <rect id="Rectangle-41" stroke="#C0C0C0" stroke-width="2" x="269" y="37" width="10" height="10" rx="2"></rect>
                <rect id="Rectangle-41" stroke="#C0C0C0" stroke-width="2" x="269" y="65" width="10" height="10" rx="2"></rect>
                <rect id="Rectangle-41" stroke="#C0C0C0" stroke-width="2" x="269" y="233" width="10" height="10" rx="2"></rect>
                <rect id="Rectangle-41" stroke="#C0C0C0" stroke-width="2" x="269" y="289" width="10" height="10" rx="2"></rect>
                <rect id="ico_global_checkbox_disable" fill="#EEEEEE" x="268" y="316" width="12" height="12" rx="2"></rect>
                <rect id="Rectangle-41" stroke="#C0C0C0" stroke-width="2" x="269" y="373" width="10" height="10" rx="2"></rect>
                <g id="Group-7" transform="translate(268.000000, 204.000000)" fill="#4285F4">
                    <g id="Group-6">
                        <g id="Group">
                            <path d="M9.9914698,0 C11.0980496,0 12,0.899249601 12,2.0085302 L12,2.0085302 L12,9.9914698 C12,11.0980496 11.1007504,12 9.9914698,12 L9.9914698,12 L2.0085302,12 C0.901950359,12 0,11.1007504 0,9.9914698 L0,9.9914698 L0,2.0085302 C0,0.901950359 0.899249601,0 2.0085302,0 L2.0085302,0 Z M8.76500508,2.7324684 C7.33369887,4.10563969 4.94952932,7.41826416 4.94952932,7.41826416 C4.94952932,7.41826416 3.15008937,6.04074137 2.40192869,5.80240807 C1.71655055,5.5840747 1,6.03659812 1,6.03659812 L4.9495294,10 L9.90572145,3.35520481 C9.90572145,3.35520481 10.1448602,3.02283535 10.5163282,2.5193765 C10.8877963,2.01591765 9.97201078,1.57448727 8.76500508,2.7324684 Z" id="形状结合"></path>
                        </g>
                    </g>
                </g>
                <path d="M277.99147,120 C279.09805,120 280,120.89925 280,122.00853 L280,122.00853 L280,129.99147 C280,131.09805 279.10075,132 277.99147,132 L277.99147,132 L270.00853,132 C268.90195,132 268,131.10075 268,129.99147 L268,129.99147 L268,122.00853 C268,120.90195 268.89925,120 270.00853,120 L270.00853,120 Z M276.765005,122.732468 C275.333699,124.10564 272.949529,127.418264 272.949529,127.418264 C272.949529,127.418264 271.150089,126.040741 270.401929,125.802408 C269.716551,125.584075 269,126.036598 269,126.036598 L272.949529,130 L277.905721,123.355205 C277.905721,123.355205 278.14486,123.022835 278.516328,122.519377 C278.887796,122.015918 277.972011,121.574487 276.765005,122.732468 Z" id="ico_global_checkbox_selected" fill="#4285F4"></path>
            </g>
            <g id="编组-4" transform="translate(300.000000, 58.000000)">
                <rect id="Rectangle-15" fill="#FFFFFF" x="0" y="0" width="300" height="28"></rect>
                <g id="编组-6" transform="translate(20.000000, 5.000000)">
                    <rect id="矩形" fill="#D8D8D8" x="0" y="2" width="14" height="14" rx="2"></rect>
                    <text id="王光杰" font-family="PingFangSC-Regular, PingFang SC" font-size="13" font-weight="normal" fill="#111111">
                        <tspan x="19" y="14">李浩华</tspan>
                    </text>
                </g>
            </g>
            <g id="编组-4" transform="translate(300.000000, 86.000000)">
                <rect id="Rectangle-15" fill="#FFFFFF" x="0" y="0" width="300" height="28"></rect>
                <g id="编组-7" transform="translate(20.000000, 5.000000)">
                    <rect id="矩形" fill="#D8D8D8" x="0" y="2" width="14" height="14" rx="2"></rect>
                    <text id="王光杰" font-family="PingFangSC-Regular, PingFang SC" font-size="13" font-weight="normal" fill="#111111">
                        <tspan x="19" y="14">康翔</tspan>
                    </text>
                </g>
            </g>
            <rect id="Rectangle-11" fill="#EEEEEE" fill-rule="nonzero" x="300" y="0" width="1" height="480"></rect>
            <g id="global_checkbox_cancel" transform="translate(568.000000, 66.000000)">
                <rect id="Rectangle" fill="#E2E2E2" x="0" y="0" width="12" height="12" rx="2"></rect>
                <g id="编组-17" transform="translate(2.500000, 2.500000)" fill="#A3A3A3">
                    <rect id="Rectangle-2" transform="translate(3.500000, 3.500000) rotate(-315.000000) translate(-3.500000, -3.500000) " x="0" y="3" width="7" height="1"></rect>
                    <rect id="Rectangle-2-Copy" transform="translate(3.500000, 3.500000) rotate(-315.000000) translate(-3.500000, -3.500000) " x="3" y="0" width="1" height="7"></rect>
                </g>
            </g>
            <g id="global_checkbox_cancel" transform="translate(568.000000, 94.000000)">
                <rect id="Rectangle" fill="#E2E2E2" x="0" y="0" width="12" height="12" rx="2"></rect>
                <g id="编组-17" transform="translate(2.500000, 2.500000)" fill="#A3A3A3">
                    <rect id="Rectangle-2" transform="translate(3.500000, 3.500000) rotate(-315.000000) translate(-3.500000, -3.500000) " x="0" y="3" width="7" height="1"></rect>
                    <rect id="Rectangle-2-Copy" transform="translate(3.500000, 3.500000) rotate(-315.000000) translate(-3.500000, -3.500000) " x="3" y="0" width="1" height="7"></rect>
                </g>
            </g>
            <g id="bar" transform="translate(0.000000, 54.000000)">
                <rect id="Rectangle-14" fill="#FFFFFF" fill-rule="nonzero" x="0" y="0" width="300" height="28"></rect>
                <rect id="Rectangle-14" fill="#EEEEEE" fill-rule="nonzero" x="0" y="27" width="300" height="1"></rect>
                <text id="通讯录" font-family="PingFangSC-Regular, PingFang SC" font-size="12" font-weight="normal" fill="#4285F4">
                    <tspan x="57" y="18">通讯录</tspan>
                </text>
                <text id="标签" font-family="PingFangSC-Regular, PingFang SC" font-size="12" font-weight="normal" fill="#8F9598">
                    <tspan x="213" y="18">标签</tspan>
                </text>
                <rect id="Rectangle-16" fill="#4285F4" fill-rule="nonzero" x="57" y="26" width="36" height="2"></rect>
            </g>
        </g>
    </g>
</svg>