<?xml version="1.0" encoding="UTF-8"?>
<svg width="332px" height="266px" viewBox="0 0 332 266" version="1.1" xmlns="http://www.w3.org/2000/svg" xmlns:xlink="http://www.w3.org/1999/xlink">
    <title>编组 27</title>
    <g id="公开频道" stroke="none" stroke-width="1" fill="none" fill-rule="evenodd">
        <g id="编组-27" transform="translate(1.000000, 1.000000)">
            <rect id="矩形" stroke-opacity="0.05" stroke="#000000" fill="#FFFFFF" x="-0.5" y="-0.5" width="331" height="265"></rect>
            <path d="M150.263395,102 C143.409998,102 138.003141,107.410542 138.003141,114.203748 L138.003141,114.203748 L138,146.048544 C138,146.269587 138.140383,146.469575 138.228868,146.672359 L138.228868,146.672359 C138.310601,146.859449 138.427115,147.029757 138.57268,147.173882 L138.57268,147.173882 L153.267257,161.739488 C153.267257,161.739488 153.291518,161.760155 153.302667,161.770721 L153.302667,161.770721 C153.461657,161.923004 153.666578,161.999145 153.871421,162 L153.871421,162 L153.87833,162 C154.09283,161.999145 154.306702,161.915701 154.467577,161.750754 L154.467577,161.750754 C154.647766,161.56545 154.683411,161.256301 154.691263,161.079855 L154.691263,161.079855 C154.697151,160.947229 154.716073,160.485409 154.721883,160.346645 L154.721883,160.346645 L154.715524,115.322327 C154.715524,114.1966 155.885773,113.017108 157.021633,113.017108 L157.021633,113.017108 L177.036623,113.034823 C177.68397,113.034823 178.126867,113.589412 178.126867,114.477313 L178.126867,114.477313 L178.120821,118.970196 C178.120821,119.842869 177.805745,120.258228 177.09543,120.258228 L177.09543,120.258228 L163.475551,120.253644 C162.797741,120.253644 162.497582,120.615315 162.497582,121.248765 L162.497582,121.248765 L162.498289,128.344905 C162.498289,129.185334 163.032497,129.579482 163.691072,129.579482 L163.691072,129.579482 L171.609588,129.586786 C172.415532,129.586786 172.639925,130.148134 172.639925,130.752525 L172.639925,130.752525 L172.626813,135.58649 C172.626813,136.559779 172.244529,136.818582 171.527698,136.818582 L171.527698,136.818582 L163.650009,136.812521 C162.828754,136.812521 162.567695,137.356233 162.567695,137.896603 L162.567695,137.896603 L162.575939,149.319825 C162.573505,149.725627 162.754637,150.110995 163.523994,150.094291 L163.523994,150.094291 L178.285857,150.089396 C185.13949,150.089396 190.995839,145.079063 190.995839,138.285856 L190.995839,138.285856 L191,114.443049 C191,107.649843 185.118055,102.009013 178.264501,102.009013 L178.264501,102.009013 L178.264423,102.000777 L150.263395,102 Z" id="Fill-1" fill="#EEEEEE"></path>
        </g>
    </g>
</svg>