<?xml version="1.0" encoding="UTF-8"?>
<svg width="302px" height="262px" viewBox="0 0 302 262" version="1.1" xmlns="http://www.w3.org/2000/svg" xmlns:xlink="http://www.w3.org/1999/xlink">
    <title>编组 50</title>
    <g id="快捷搜索" stroke="none" stroke-width="1" fill="none" fill-rule="evenodd">
        <g id="编组-50" transform="translate(1.000000, 1.000000)">
            <rect id="蒙版" stroke="#EEEEEE" fill="#FFFFFF" x="-0.5" y="-0.5" width="301" height="261" rx="2"></rect>
            <g id="编组-2" transform="translate(15.000000, 15.000000)">
                <rect id="Rectangle" stroke="#4285F4" fill="#FFFFFF" x="-0.5" y="-0.5" width="271" height="27" rx="2"></rect>
                <g id="ico_input_cancel" transform="translate(251.000000, 7.000000)">
                    <rect id="Rectangle" fill="#D9D9D9" x="0" y="0" width="12" height="12" rx="2"></rect>
                    <polygon id="路径" fill="#9B9B9B" transform="translate(5.949747, 5.949747) rotate(-315.000000) translate(-5.949747, -5.949747) " points="5.44974747 5.44974747 5.44974747 2.44974747 6.44974747 2.44974747 6.44974747 5.44974747 9.44974747 5.44974747 9.44974747 6.44974747 6.44974747 6.44974747 6.44974747 9.44974747 5.44974747 9.44974747 5.44974747 6.44974747 2.44974747 6.44974747 2.44974747 5.44974747"></polygon>
                </g>
                <rect id="Rectangle-Copy-3" fill="#000000" x="35" y="5" width="1" height="16"></rect>
                <text id="杨" font-family="PingFangSC-Regular, PingFang SC" font-size="14" font-weight="normal" fill="#000000">
                    <tspan x="20" y="18">杨</tspan>
                </text>
                <g id="编组" transform="translate(6.000000, 8.000000)" fill="#999999" fill-rule="nonzero">
                    <path d="M4.58333333,0 C7.11463844,0 9.16666667,2.05202823 9.16666667,4.58333333 C9.16666667,5.75467278 8.72726684,6.8233849 8.00430574,7.63363114 L9.39293181,9.00817736 C9.55565027,9.17089582 9.55565027,9.43471456 9.39293181,9.59743301 C9.23021336,9.76015147 8.96639462,9.76015147 8.80367616,9.59743301 L7.39333155,8.20449451 C6.61729621,8.80756374 5.64225126,9.16666667 4.58333333,9.16666667 C2.05202823,9.16666667 0,7.11463844 0,4.58333333 C0,2.05202823 2.05202823,0 4.58333333,0 Z M4.58333333,0.833333333 C2.51226552,0.833333333 0.833333333,2.51226552 0.833333333,4.58333333 C0.833333333,6.65440115 2.51226552,8.33333333 4.58333333,8.33333333 C6.65440115,8.33333333 8.33333333,6.65440115 8.33333333,4.58333333 C8.33333333,2.51226552 6.65440115,0.833333333 4.58333333,0.833333333 Z" id="形状结合"></path>
                </g>
            </g>
            <path d="M158,130.8 C157.597627,134.842658 154.178344,138 150.019799,138 C145.590586,138 142,134.418278 142,130 C142,125.581722 145.590586,122 150.019799,122 L150.019799,123.6 C146.476429,123.6 143.60396,126.465378 143.60396,130 C143.60396,133.534622 146.476429,136.4 150.019799,136.4 C153.29157,136.4 155.991348,133.957049 156.386001,130.8 L158,130.8 Z" id="ico_searching" fill="#4285F4" fill-rule="nonzero"></path>
            <text id="搜索中..." font-family="PingFangSC-Regular, PingFang SC" font-size="12" font-weight="normal" fill="#9B9B9B">
                <tspan x="127" y="159">搜索中...</tspan>
            </text>
        </g>
    </g>
</svg>