<?xml version="1.0" encoding="UTF-8"?>
<svg width="332px" height="266px" viewBox="0 0 332 266" version="1.1" xmlns="http://www.w3.org/2000/svg" xmlns:xlink="http://www.w3.org/1999/xlink">
    <title>编组 17</title>
    <g id="页面-1" stroke="none" stroke-width="1" fill="none" fill-rule="evenodd">
        <g id="编组-17" transform="translate(1.000000, 1.000000)">
            <rect id="矩形" stroke-opacity="0.05" stroke="#000000" fill="#FFFFFF" x="-0.5" y="-0.5" width="331" height="265"></rect>
            <g id="编组-4" transform="translate(137.000000, 97.000000)">
                <text id="暂无内容" font-family="PingFangSC-Regular, PingFang SC" font-size="14" font-weight="normal" fill="#9B9B9B">
                    <tspan x="0" y="66">暂无内容</tspan>
                </text>
                <g id="编组-7" transform="translate(3.000000, 0.000000)" fill="#D9D9D9" fill-rule="nonzero">
                    <path d="M38.3710436,15.4947742 C38.4069166,15.4947742 38.442404,15.4958065 38.4790485,15.498129 C38.7561325,15.5159355 40.1949121,15.6378065 41.3083912,16.2770323 C42.3715966,16.888129 43.2274069,17.956 43.3880642,18.1634839 C43.4206712,18.2059776 43.4513052,18.24996 43.4798683,18.2952903 L48.720742,26.6292903 C48.7431144,26.666 48.7658083,26.7043226 48.7862521,26.7436129 C48.8866709,26.9371613 49.4047087,27.959871 49.6670706,28.9544516 C49.9261538,29.9384516 49.9886424,31.0259355 49.9981571,31.2336774 L49.9997637,31.3046452 L49.9997637,40.1265806 C50.0054217,40.5930323 49.9198535,42.1938065 48.5966649,43.3832903 C47.3435509,44.5090323 45.6566172,44.5961935 45.1694379,44.5961935 L4.68077854,44.5961935 L4.62246875,44.5956129 C4.28540345,44.5846452 2.53334535,44.4717419 1.36612094,43.3736774 C0.169323753,42.2472903 0.0264744122,40.6277419 0.0100165222,40.3142581 C0.00842303781,40.2847801 0.00765127258,40.2552632 0.00770213138,40.2257419 L0.00770213138,31.4050968 C-0.00972008817,31.0417419 -0.03312115,29.8142581 0.376718883,28.4510323 C0.76939385,27.1439355 1.25451587,26.2858065 1.39344361,26.0542581 L5.80615106,18.2199355 C5.82820206,18.1806452 5.85153883,18.1426452 5.87654711,18.1056774 C6.01412478,17.9008387 6.7537655,16.8464516 7.76791868,16.2132258 C8.83504569,15.5463226 10.1266686,15.4947742 10.4972926,15.4947742 L38.3710436,15.4947742 Z M46.643,31.28 L32.8487786,31.2885161 L32.775361,31.5781935 C31.8665769,35.1717419 28.6315729,37.6819355 24.9075253,37.6819355 C21.176213,37.6819355 17.9342659,35.1714839 17.0244532,31.577871 L16.9510998,31.2881935 L3.355,31.28 C3.35646454,31.3085352 3.35695045,31.3284267 3.35720418,31.3483226 L3.35720418,40.1676129 L3.3604829,40.192 C3.38124813,40.3505806 3.47768107,40.7347742 3.64393148,40.908129 L3.66630392,40.932 L3.69266226,40.9514194 C3.92538711,41.1235484 4.50205615,41.2223226 4.70347243,41.2345161 L45.1720737,41.2351613 C45.5078533,41.2312258 46.0947442,41.1189032 46.3607063,40.8797419 C46.5986385,40.6656774 46.6519338,40.2983871 46.6519338,40.2396129 L46.6487193,40.1375484 L46.6487193,31.3562581 L46.643,31.28 Z M38.2881112,18.8558065 L10.5032071,18.8558065 C10.2431596,18.858129 9.76003054,18.9271613 9.53682041,19.0672258 C9.22244899,19.2638065 8.85021781,19.7130323 8.69714658,19.9227742 L8.68396741,19.9409677 L4.29890407,27.726 L4.25152334,27.8059355 C4.25088046,27.807871 4.23178673,27.8419355 4.23178674,27.8419355 C4.22072066,27.8616806 4.20697514,27.8866557 4.19092984,27.9166678 L18.4556467,27.9278065 C19.3797043,27.93015 20.1279816,28.6817674 20.1294655,29.6090968 C20.1294655,32.2510323 22.2281679,34.3201935 24.9075253,34.3201935 C27.5773036,34.3201935 29.6687414,32.2510968 29.6687414,29.6091613 C29.6707201,28.6816753 30.4192457,27.9301837 31.3434603,27.9278065 L45.569,27.918 L40.6955277,20.1669032 L40.6794555,20.1474194 C40.4845324,19.911871 40.017154,19.4084516 39.6438942,19.1937419 C39.320651,19.008129 38.6623354,18.8892258 38.3232771,18.8574839 L38.2881112,18.8558065 Z M24.8429795,2.34479103e-13 C25.7676237,0.000923974939 26.5170657,0.752729389 26.5183413,1.68064516 L26.5183413,11.3491613 C26.5174199,12.2769727 25.7681622,13.0288818 24.8436224,13.0299355 C23.9190304,13.0290112 23.1696806,12.2771539 23.1685821,11.3492903 L23.1685821,1.68064516 C23.1696799,0.75303309 23.9186386,0.0012797434 24.8429795,2.34479103e-13 Z M39.9029774,4.8656726 C40.289995,4.8656726 40.6543829,4.99548387 40.9558966,5.24090323 C41.302279,5.52061962 41.5224551,5.92802038 41.5671529,6.37193548 C41.6148654,6.81532753 41.4836315,7.25942579 41.202765,7.60503226 L37.3743769,12.3435484 C37.0578515,12.7381307 36.5798669,12.9670745 36.0751036,12.965871 L36.0725321,12.965871 L36.0725321,12.9661935 C35.1479886,12.9649137 34.3988756,12.2129767 34.3978132,11.2851613 C34.3981642,10.8996933 34.5302301,10.5260042 34.7719731,10.2264516 L38.6004897,5.488 C38.9183332,5.09331242 39.397305,4.86446193 39.9029774,4.8656726 Z M10.0394289,4.73786389 C10.5529022,4.73786389 11.0305025,4.96870968 11.3501456,5.37109677 L15.1140521,10.1091613 C15.6898459,10.8350695 15.5713166,11.8917534 14.8491187,12.4710323 C14.5524551,12.7078047 14.1847596,12.8370104 13.8057142,12.8376836 L13.8030141,12.8376836 C13.2932798,12.8390632 12.8110597,12.6058027 12.4946118,12.2047742 L8.73102669,7.46664516 C8.15540576,6.74045601 8.27424713,5.68369505 8.99666731,5.10451613 C9.29221706,4.86617515 9.66027865,4.7367611 10.0394289,4.73786389 Z" id="形状结合"></path>
                </g>
            </g>
        </g>
    </g>
</svg>