<?xml version="1.0" encoding="UTF-8"?>
<svg width="446px" height="84px" viewBox="0 0 446 84" version="1.1" xmlns="http://www.w3.org/2000/svg" xmlns:xlink="http://www.w3.org/1999/xlink">
    <title>编组 51</title>
    <g id="自定义表情" stroke="none" stroke-width="1" fill="none" fill-rule="evenodd">
        <g id="编组-51">
            <rect id="矩形" stroke="#EEEEEE" fill="#FFFFFF" x="0.5" y="0.5" width="445" height="83"></rect>
            <g id="编组-18">
                <g id="编组-17" transform="translate(8.000000, 30.000000)" fill="#CCCCCC" font-family="PingFangSC-Regular, PingFang SC" font-size="12" font-weight="normal">
                    <text id="请输入内容">
                        <tspan x="0" y="13">请输入内容</tspan>
                    </text>
                </g>
                <g id="编组-16">
                    <g id="编组-5" transform="translate(4.000000, 0.000000)">
                        <rect id="矩形" fill-opacity="0" fill="#F9F9F9" x="0" y="0" width="24" height="24"></rect>
                        <path d="M12,6 C8.7,6 6,8.7 6,12 C6,15.3 8.7,18 12,18 C15.3,18 18,15.3 18,12 C18,8.7 15.3,6 12,6 Z M12,17.04 C9.18,17.04 6.96,14.76 6.96,12 C6.96,9.24 9.18,6.96 12,6.96 C14.82,6.96 17.04,9.24 17.04,12 C17.04,12 17.04,12 17.04,12 C17.04,14.82 14.82,17.04 12,17.04 C12,17.04 12,17.04 12,17.04 Z M9.36,10.38 C9.36,10.74 9.66,11.1 10.08,11.1 C10.5,11.1 10.8,10.8 10.8,10.38 C10.8,9.96 10.44,9.66 10.08,9.66 C10.08,9.66 10.08,9.66 10.08,9.66 C9.66,9.66 9.36,9.96 9.36,10.38 Z M13.26,10.38 C13.26,10.74 13.56,11.1 13.98,11.1 C14.4,11.1 14.7,10.8 14.7,10.38 C14.7,9.96 14.4,9.66 13.98,9.66 C13.98,9.66 13.98,9.66 13.98,9.66 C13.62,9.66 13.26,9.96 13.26,10.38 Z M9.18,12.9 C9.18,14.46 10.44,15.72 12,15.72 C13.56,15.72 14.82,14.46 14.82,12.9 L9.18,12.9 Z" id="ic_input_emoji_unselected" fill="#666666" fill-rule="nonzero"></path>
                    </g>
                    <g id="编组-6" transform="translate(28.000000, 0.000000)">
                        <rect id="矩形" fill-opacity="0" fill="#F9F9F9" x="0" y="0" width="24" height="24"></rect>
                        <path d="M11.4795867,16.5011089 L16.5851726,11.4533134 C17.2765535,10.7687627 17.2907369,9.67751083 16.6224008,9.01662884 C15.9549523,8.35662045 14.8514007,8.3706442 14.1591363,9.05519508 L9.47458046,13.6875319 C9.25387075,13.9057814 9.26539291,14.2853086 9.51712706,14.5342371 C9.76974668,14.7840408 10.1535522,14.7945593 10.3733769,14.577186 L13.5705694,11.4156328 L13.5705693,11.4156328 C13.7406127,11.2415361 14.0211847,11.2367136 14.1972439,11.4048627 C14.3733031,11.5730106 14.3781799,11.850455 14.2081354,12.0245516 C14.2045684,12.0282036 14.2009376,12.031794 14.1972445,12.0353212 L11.0009401,15.1968744 C10.4247886,15.7648502 9.48078803,15.7385545 8.89133342,15.1539257 C8.30011348,14.5701728 8.27263637,13.6366935 8.84701401,13.0678349 L13.532458,8.43549804 C14.567757,7.41173955 16.2315099,7.39157905 17.2490746,8.39780832 C18.2666456,9.40403635 18.2462594,11.0492402 17.2109601,12.0729956 L14.4170665,14.837502 L12.3101242,16.9402326 L12.3101243,16.9402326 C12.2358205,17.0136354 12.1583369,17.0838216 12.0778908,17.1505934 L12.050413,17.1768887 L12.050413,17.1768887 C12.0202797,17.2067342 11.9859476,17.2321226 11.9484786,17.2522681 C10.5125325,18.339135 8.40647829,18.2462257 7.0857694,16.9402327 C5.64982335,15.5194165 5.63564151,13.2273591 7.05829135,11.8196838 L12.8082768,6.13379377 L12.8082768,6.13379379 C12.9783202,5.95969713 13.2588921,5.95487463 13.4349513,6.12302368 C13.6110105,6.29117157 13.6158874,6.56861597 13.4458428,6.74271263 C13.4422759,6.7463646 13.438645,6.74995499 13.4349519,6.75348219 L7.68407832,12.4402504 C6.6088919,13.5034517 6.62041406,15.2398084 7.71155637,16.3196619 C8.73799136,17.3346552 10.391989,17.3811098 11.4795904,16.5010986 L11.4795867,16.5011089 Z" id="路径" fill="#666666" fill-rule="nonzero"></path>
                    </g>
                    <g id="编组-7" transform="translate(52.000000, 0.000000)">
                        <rect id="矩形" fill-opacity="0" fill="#F9F9F9" x="0" y="0" width="24" height="24"></rect>
                        <path d="M14.9402669,16.1905345 C15.3817077,16.1905345 15.7896804,15.959247 16.0104544,15.5837192 C16.2311614,15.2082046 16.2311614,14.74559 16.0104544,14.3700622 C15.7896804,13.9945476 15.3817077,13.7632074 14.9402669,13.7632074 C14.2577379,13.7632074 13.7045222,14.3065875 13.7045222,14.9768644 C13.7045222,15.6471544 14.2577379,16.1905345 14.9402669,16.1905345 L14.9402669,16.1905345 Z M9.06028928,16.1905345 C9.50178372,16.1905345 9.90975644,15.959247 10.1304768,15.5837192 C10.3512509,15.2082046 10.3512509,14.74559 10.1304768,14.3700622 C9.90975644,13.9945476 9.50178372,13.7632074 9.06028928,13.7632074 C8.37781391,13.7632074 7.82454466,14.3065875 7.82454466,14.9768644 C7.82454466,15.6471544 8.37781391,16.1905345 9.06028928,16.1905345 L9.06028928,16.1905345 Z M12.0700167,11.6433637 L10.2136509,13.300448 C11.0816489,13.8768956 11.3705659,15.0015168 10.8849703,15.9134188 C10.3994283,16.8253209 9.29410997,17.2338107 8.31689825,16.8625629 C7.33963289,16.4913018 6.80197134,15.4586135 7.06763767,14.4631804 C7.33334421,13.4676814 8.31763573,12.8268241 9.3546502,12.9740933 L11.4570921,11.0958617 L7.68396798,7.72407868 C7.51562191,7.57362262 7.50331273,7.31764318 7.65646676,7.15230612 C7.80967442,6.98698223 8.07029908,6.97489307 8.23864515,7.12536231 L12.0700167,10.5494527 L15.9233382,7.10539807 C16.0322435,7.00806583 16.1857596,6.97519596 16.3260279,7.01918049 C16.4662962,7.06311234 16.5719834,7.17726142 16.6033598,7.31851234 C16.6347361,7.4598291 16.5869743,7.60679538 16.4780824,7.70412761 L12.6818416,11.0964279 L14.7688904,12.961135 C15.8104638,12.8757997 16.7520085,13.5702022 16.9589581,14.5764471 C17.1658944,15.5826394 16.57256,16.5815359 15.5789092,16.8999102 C14.5852048,17.2182845 13.5062748,16.7551563 13.069232,15.8226711 C12.6321893,14.8901464 12.9756796,13.7840408 13.8681484,13.2497209 L12.0700167,11.6433637 Z" id="ic_input_screenshot_unselected" fill="#666666" fill-rule="nonzero"></path>
                    </g>
                    <g id="编组-8" transform="translate(76.000000, 0.000000)">
                        <rect id="矩形" fill-opacity="0" fill="#F9F9F9" x="0" y="0" width="24" height="24"></rect>
                        <path d="M16,7 C17.1045695,7 18,7.9234127 18,9.0625 L18,15.9375 C18,17.0765873 17.1045695,18 16,18 L8,18 C6.8954305,18 6,17.0765873 6,15.9375 L6,9.0625 C6,7.9234127 6.8954305,7 8,7 L16,7 Z M9.94479917,13.0776249 L7,15.128 L7,15.858209 C7,16.4888027 7.49423112,17 8.1038961,17 L13.72,17 L9.94479917,13.0776249 Z M14.8305795,14.2528022 L13.195,15.186 L14.941,17 L15.8961039,17 C16.3797714,17 16.7907875,16.6782638 16.9400161,16.23042 L14.8305795,14.2528022 Z M15.8961039,8 L8.1038961,8 C7.49423112,8 7,8.51119726 7,9.14179104 L7,14.049 L9.75752283,12.1296354 C9.90551142,12.0265973 10.0964892,12.0291383 10.240339,12.1280996 L10.3079194,12.1855729 L12.56,14.526 L14.6824754,13.3157538 C14.8217109,13.2362461 14.9897859,13.2427247 15.1214659,13.3273375 L15.183971,13.3761187 L17,15.08 L17,9.14179104 C17,8.51119726 16.5057689,8 15.8961039,8 Z M13,9.0625 C13.9204746,9.0625 14.6666667,9.83201059 14.6666667,10.78125 C14.6666667,11.7304894 13.9204746,12.5 13,12.5 C12.0795254,12.5 11.3333333,11.7304894 11.3333333,10.78125 C11.3333333,9.83201059 12.0795254,9.0625 13,9.0625 Z M13,9.95625 C12.5581722,9.95625 12.2,10.3256151 12.2,10.78125 C12.2,11.2368849 12.5581722,11.60625 13,11.60625 C13.4418278,11.60625 13.8,11.2368849 13.8,10.78125 C13.8,10.3256151 13.4418278,9.95625 13,9.95625 Z" id="形状结合" fill="#666666" fill-rule="nonzero"></path>
                    </g>
                    <g id="编组-11" transform="translate(100.000000, 0.000000)">
                        <rect id="矩形" fill-opacity="0" fill="#F9F9F9" x="0" y="0" width="24" height="24"></rect>
                        <path d="M14.5806452,17 C14.8122484,17 15,17.2238576 15,17.5 C15,17.7761424 14.8122484,18 14.5806452,18 L14.5806452,18 L9.41935484,18 C9.18775156,18 9,17.7761424 9,17.5 C9,17.2238576 9.18775156,17 9.41935484,17 L9.41935484,17 Z M5.09910911,7.86589093 C5.25797882,7.74773315 5.51181264,7.74773315 5.65092279,7.95027411 C5.74366289,8.08530142 6.01037244,8.47623415 6.45105142,9.12307231 C6.59039027,9.3299515 6.59039027,9.66626251 6.45105142,9.87314171 L6.45105142,9.87314171 L5.81795348,10.812053 L6.45105142,11.7520262 C6.59039027,11.9589054 6.59039027,12.2941562 6.45105142,12.5020957 L6.45105142,12.5020957 L5.81795348,13.4410069 L6.45105142,14.3809802 C6.59039027,14.5878594 6.59039027,14.9241704 6.45105142,15.1310496 C6.07002463,15.696664 5.85899198,16.009635 5.81795348,16.0699626 C5.75639573,16.160454 5.64465172,16.3113058 5.54902158,16.3735378 C5.45339145,16.4357698 5.25204416,16.4572782 5.14810147,16.3735378 C5.04415878,16.2897974 5.01029078,16.2100216 5.00264396,16.0478222 C4.99499714,15.8856228 5.04336087,15.7164782 5.09910911,15.6381686 C5.13627461,15.5859623 5.33420681,15.2920883 5.69290571,14.7565468 L5.69290571,14.7565468 L5.09910911,13.874925 C5.01979337,13.7561032 4.99049649,13.5959043 5.00264396,13.4410104 C4.99049649,13.2861157 5.01979325,13.1269788 5.09910911,13.0081561 L5.09910911,13.0081561 L5.69290571,12.1265343 L5.09910911,11.2449125 C5.01979337,11.1260889 4.99049649,10.9669521 5.00264396,10.8120582 C4.99049649,10.6571635 5.01979325,10.4969658 5.09910911,10.379204 L5.09910911,10.379204 L5.69290571,9.49758214 C5.36135141,9.00732169 5.16341921,8.71344775 5.09910911,8.61596033 C5.00264396,8.46972921 4.9402394,7.98404871 5.09910911,7.86589093 Z M18.9008909,7.86589093 C19.0597606,7.98404871 18.997356,8.46972921 18.9008909,8.61596033 C18.8365808,8.71344775 18.6386486,9.00732169 18.3070943,9.49758214 L18.9008909,10.379204 C18.9802068,10.4969658 19.0095035,10.6571635 18.997356,10.8120582 C19.0095035,10.9669521 18.9802066,11.1260889 18.9008909,11.2449125 L18.3070943,12.1265343 L18.9008909,13.0081561 C18.9802068,13.1269788 19.0095035,13.2861157 18.997356,13.4410104 C19.0095035,13.5959043 18.9802066,13.7561032 18.9008909,13.874925 L18.3070943,14.7565468 C18.6657932,15.2920883 18.8637254,15.5859623 18.9008909,15.6381686 C18.9566391,15.7164782 19.0050029,15.8856228 18.997356,16.0478222 C18.9897092,16.2100216 18.9558412,16.2897974 18.8518985,16.3735378 C18.7479558,16.4572782 18.5466086,16.4357698 18.4509784,16.3735378 C18.3553483,16.3113058 18.2436043,16.160454 18.1820465,16.0699626 C18.141008,16.009635 17.9299754,15.696664 17.5489486,15.1310496 C17.4096097,14.9241704 17.4096097,14.5878594 17.5489486,14.3809802 L18.1820465,13.4410069 L17.5489486,12.5020957 C17.4096097,12.2941562 17.4096097,11.9589054 17.5489486,11.7520262 L18.1820465,10.812053 L17.5489486,9.87314171 C17.4096097,9.66626251 17.4096097,9.3299515 17.5489486,9.12307231 C17.9896276,8.47623415 18.2563371,8.08530142 18.3490772,7.95027411 C18.4881874,7.74773315 18.7420212,7.74773315 18.9008909,7.86589093 Z M14.5,7 C15.8807119,7 17,8.09893743 17,9.45454545 L17,13.5454545 C17,14.9010626 15.8807119,16 14.5,16 L9.5,16 C8.11928813,16 7,14.9010626 7,13.5454545 L7,9.45454545 C7,8.09893743 8.11928813,7 9.5,7 L14.5,7 Z M14.5531915,8 L9.44680851,8 C8.64775823,8 8,8.63426327 8,9.41666667 L8,13.5833333 C8,14.3657367 8.64775823,15 9.44680851,15 L14.5531915,15 C15.3522418,15 16,14.3657367 16,13.5833333 L16,9.41666667 C16,8.63426327 15.3522418,8 14.5531915,8 Z" id="形状结合" fill="#666666" fill-rule="nonzero"></path>
                    </g>
                    <g id="编组-15" transform="translate(124.000000, 0.000000)">
                        <rect id="矩形" fill-opacity="0" fill="#F9F9F9" x="0" y="0" width="24" height="24"></rect>
                        <path d="M14.50866,11.0117647 C16.4130273,11.0117647 18,12.5602941 18,14.5058824 C18,16.4514706 16.4527016,18 14.50866,18 C12.5646184,18 11.0173199,16.4514706 11.0173199,14.5058824 C11.0173199,12.5602941 12.6042927,11.0117647 14.50866,11.0117647 Z M14.50866,11.8529412 C13.0537942,11.8529412 11.8584964,13.0398442 11.8584964,14.5058824 C11.8584964,15.9870513 13.0293371,17.1588235 14.50866,17.1588235 C15.9879828,17.1588235 17.1588235,15.9870513 17.1588235,14.5058824 C17.1588235,13.0398442 15.9635257,11.8529412 14.50866,11.8529412 Z M15.75,7 C16.4403559,7 17,7.59695367 17,8.33333333 L17.0011954,11.3185321 C16.700212,11.0704157 16.3634649,10.8641234 15.9998483,10.7085497 L16,8.4516129 C16,8.20219398 15.8128951,8 15.5820896,8 L8.41791045,8 C8.18710488,8 8,8.20219398 8,8.4516129 L8,15.5483871 C8,15.797806 8.18710488,16 8.41791045,16 L10.5306756,16.0010847 C10.6710929,16.3617865 10.8607743,16.6978668 11.0914546,17.00106 L8.25,17 C7.55964406,17 7,16.4030463 7,15.6666667 L7,8.33333333 C7,7.59695367 7.55964406,7 8.25,7 L15.75,7 Z M14.5942954,12.709943 C14.7729758,12.709943 14.9178248,12.8547921 14.9178248,13.0334724 L14.9176483,14.683943 L15.7833642,15.1834858 C15.9381059,15.2728259 15.9911243,15.4706934 15.9017841,15.6254351 L15.8047253,15.793546 C15.7153851,15.9482877 15.5175177,16.0013061 15.3627759,15.9119659 L14.2420372,15.2649071 C14.1718748,15.2243988 14.1226253,15.1615788 14.0980766,15.0905836 C14.0842781,15.0548841 14.0766483,15.0156575 14.0766483,14.9746489 L14.0766483,13.0334724 C14.0766483,12.8547921 14.2214974,12.709943 14.4001778,12.709943 L14.5942954,12.709943 Z M11.3715717,11.5282123 C11.1033989,11.797551 10.8687116,12.1058852 10.6750868,12.4449576 L9.45833333,12.4460784 C9.20520282,12.4460784 9,12.2408756 9,11.9877451 C9,11.7346146 9.20520282,11.5294118 9.45833333,11.5294118 L11.3715717,11.5282123 Z M14.4029412,9.4390156 C14.6352256,9.4390156 14.8235294,9.62731936 14.8235294,9.85960383 C14.8235294,10.0918883 14.6352256,10.2801921 14.4029412,10.2801921 L9.42058824,10.2801921 C9.18830377,10.2801921 9,10.0918883 9,9.85960383 C9,9.62731936 9.18830377,9.4390156 9.42058824,9.4390156 L14.4029412,9.4390156 Z" id="合并形状" fill="#666666" fill-rule="nonzero"></path>
                    </g>
                    <g id="编组-15" transform="translate(148.000000, 0.000000)">
                        <rect id="矩形" fill="#FFFFFF" x="0" y="0" width="24" height="24"></rect>
                        <g id="编组-12" transform="translate(7.000000, 6.000000)">
                            <polygon id="三角形" fill="#666666" fill-rule="nonzero" transform="translate(7.000000, 6.500000) rotate(90.000000) translate(-7.000000, -6.500000) " points="7 5.5 8.5 7.5 5.5 7.5"></polygon>
                            <path d="M9,1 C9.55228475,1 10,1.44771525 10,2 L10,11 C10,11.5522847 9.55228475,12 9,12 L1,12 C0.44771525,12 0,11.5522847 0,11 L0,2 C0,1.44771525 0.44771525,1 1,1 L9,1 Z M9,2 L1,2 L1,11 L9,11 L9,2 Z" id="矩形" fill="#666666" fill-rule="nonzero"></path>
                            <rect id="矩形" stroke="#666666" fill="#FFFFFF" x="2.5" y="0.5" width="5" height="2" rx="1"></rect>
                            <rect id="矩形" fill="#666666" x="2" y="6" width="5" height="1" rx="0.5"></rect>
                        </g>
                    </g>
                    <g id="编组-15" transform="translate(172.000000, 0.000000)">
                        <rect id="矩形" fill-opacity="0" fill="#F9F9F9" x="0" y="0" width="24" height="24"></rect>
                        <path d="M11.4034152,17.1015187 C11.4982921,17.3353216 11.3855398,17.5987914 11.1531601,17.6955617 C11.0960965,17.7188714 11.0369703,17.7301731 10.9792191,17.7301731 C10.799778,17.7301731 10.6292746,17.6235137 10.5543355,17.4490445 C10.5288975,17.3890044 9.90119734,15.9812424 7.40483438,15.6817486 C7.15251678,15.6513754 6.97307565,15.4232233 7.00332627,15.1717616 C7.03357688,14.9188871 7.26801912,14.7415924 7.51346158,14.7698466 C10.5797736,15.1378566 11.3717896,17.0217007 11.4034152,17.1015187 M17.9966735,15.1717616 C18.0269241,15.4232233 17.8474829,15.6513754 17.5958529,15.6817486 C15.0988024,15.9812424 14.4711022,17.3890044 14.4456642,17.4490445 C14.3714127,17.6235137 14.2002217,17.7301731 14.0214681,17.7301731 C13.9630294,17.7301731 13.9039032,17.7188714 13.8468396,17.6955617 C13.6144599,17.5987914 13.5023951,17.3353216 13.5965845,17.1015187 C13.6288977,17.0217007 14.4202262,15.1378566 17.4865381,14.7698466 C17.7326681,14.7415924 17.9664228,14.9188871 17.9966735,15.1717616 M8.63548425,9.00694581 C8.84448848,9.07475572 9.14905713,9.21390731 9.81594561,9.53317898 C9.98713657,9.61440961 10.1177642,9.67586234 10.2470168,9.73448966 C10.8375913,10.0029039 11.5024172,9.5586077 11.5024172,8.89463564 C11.5024172,8.37475964 11.815236,7.79908174 12.4999999,7.17537182 C13.1847637,7.79908174 13.4975825,8.37475964 13.4975825,8.89463564 C13.4975825,9.5586077 14.1624085,10.0029039 14.7536704,9.73448966 C14.8822355,9.67586234 15.0128631,9.61440961 15.1840541,9.53317898 C15.8509426,9.21390731 16.1561988,9.07475572 16.3645155,9.00694581 C16.7708362,13.1546521 15.6598137,14.264804 12.4999999,14.264804 C9.340186,14.264804 8.22985106,13.1546521 8.63548425,9.00694581 Z M14.3920381,8.89463564 C14.3920381,7.91351097 13.7609003,6.94863242 12.4999999,6 C11.2390994,6.94863242 10.6086491,7.91351097 10.6086491,8.89463564 C9.25218422,8.2786956 7.90809455,7.42259546 7.7719668,8.66365813 C7.30789492,12.9038967 8.30066499,14.9711572 12.0531158,15.1717616 L12.0531158,17.5415767 C12.0531158,17.7944512 12.2531824,18 12.4999999,18 C12.7468173,18 12.9468839,17.7944512 12.9468839,17.5415767 L12.9468839,15.1717616 C16.7000222,14.9711572 17.6921048,12.9038967 17.2280329,8.66365813 C17.0925927,7.42259546 15.748503,8.2786956 14.3920381,8.89463564 Z" id="Fill-1" fill="#666666"></path>
                    </g>
                    <rect id="Rectangle-7" fill="#EEEEEE" x="-2.27373675e-13" y="0" width="446" height="1"></rect>
                </g>
            </g>
        </g>
    </g>
</svg>